/* XPM */
static const xpm_row_t l_eraser_cursor_xpm[] = {
"30 30 2 1",
"  c #000000",
". c #FFFFFF",
"                              ",
" ............................ ",
" ............................ ",
" ............................ ",
" ............................ ",
" ............................ ",
" ............................ ",
" ............................ ",
" ............................ ",
" ............................ ",
" ............................ ",
" ............................ ",
" ............................ ",
" ............................ ",
" ............................ ",
" ............................ ",
" ............................ ",
" ............................ ",
" ............................ ",
" ............................ ",
" ............................ ",
" ............................ ",
" ............................ ",
" ............................ ",
" ............................ ",
" ............................ ",
" ............................ ",
" ............................ ",
" ............................ ",
"                              "};
