/* XPM */
static const xpm_row_t m_eraser_cursor_xpm[] = {
"23 23 2 1",
"  c #000000",
". c #FFFFFF",
"                       ",
" ..................... ",
" ..................... ",
" ..................... ",
" ..................... ",
" ..................... ",
" ..................... ",
" ..................... ",
" ..................... ",
" ..................... ",
" ..................... ",
" ..................... ",
" ..................... ",
" ..................... ",
" ..................... ",
" ..................... ",
" ..................... ",
" ..................... ",
" ..................... ",
" ..................... ",
" ..................... ",
" ..................... ",
"                       "};

