/* XPM */
static const xpm_row_t s_eraser_cursor_xpm[] = {
"17 17 2 1",
"  c #000000",
". c #FFFFFF",
"                 ",
" ............... ",
" ............... ",
" ............... ",
" ............... ",
" ............... ",
" ............... ",
" ............... ",
" ............... ",
" ............... ",
" ............... ",
" ............... ",
" ............... ",
" ............... ",
" ............... ",
" ............... ",
"                 "};

