/* XPM */
static const xpm_row_t A_xpm[] = {
"30 25 2 1 ",
"  c #00B140",
". c #000000",
"            ......            ",
"            ......            ",
"            ......            ",
"           ...  ...           ",
"           ...  ...           ",
"           ...  ...           ",
"          ...    ...          ",
"          ...    ...          ",
"         ...      ...         ",
"         ...      ...         ",
"         ...      ...         ",
"        ...        ...        ",
"        ...        ...        ",
"       ....        ....       ",
"       ...          ...       ",
"       ................       ",
"      ..................      ",
"      ..................      ",
"     ....            ...      ",
"     ...              ...     ",
"     ...              ...     ",
"    ....              ....    ",
"    ...                ...    ",
"    ...                ...    ",
"   ...                  ...   "};
