/* XPM */
static const xpm_row_t F_xpm[] = {
"23 25 2 1 ",
"  c #00B140",
". c #000000",
"   .................   ",
"   .................   ",
"   .................   ",
"   ...                 ",
"   ...                 ",
"   ...                 ",
"   ...                 ",
"   ...                 ",
"   ...                 ",
"   ...                 ",
"   ...............     ",
"   ...............     ",
"   ...............     ",
"   ...                 ",
"   ...                 ",
"   ...                 ",
"   ...                 ",
"   ...                 ",
"   ...                 ",
"   ...                 ",
"   ...                 ",
"   ...                 ",
"   ...                 ",
"   ...                 ",
"   ...                 "};
