/* XPM */
static const xpm_row_t G_xpm[] = {
"28 26 2 1 ",
"  c #00B140",
". c #000000",
"            ........        ",
"         ..............     ",
"        .................   ",
"      ......       ......   ",
"      ....            ...   ",
"     ....               .   ",
"    ....                    ",
"    ...                     ",
"    ...                     ",
"   ...                      ",
"   ...                      ",
"   ...                      ",
"   ...                      ",
"   ...         ..........   ",
"   ...         ..........   ",
"   ...         ..........   ",
"   ...                ...   ",
"    ...               ...   ",
"    ...               ...   ",
"    ....              ...   ",
"     ....             ...   ",
"     .....            ...   ",
"      ......        .....   ",
"       ..................   ",
"         ..............     ",
"            ........        "};
