/* XPM */
static const xpm_row_t H_xpm[] = {
"26 25 2 1 ",
"  c #00B140",
". c #000000",
"   ...              ...   ",
"   ...              ...   ",
"   ...              ...   ",
"   ...              ...   ",
"   ...              ...   ",
"   ...              ...   ",
"   ...              ...   ",
"   ...              ...   ",
"   ...              ...   ",
"   ...              ...   ",
"   ....................   ",
"   ....................   ",
"   ....................   ",
"   ...              ...   ",
"   ...              ...   ",
"   ...              ...   ",
"   ...              ...   ",
"   ...              ...   ",
"   ...              ...   ",
"   ...              ...   ",
"   ...              ...   ",
"   ...              ...   ",
"   ...              ...   ",
"   ...              ...   ",
"   ...              ...   "};
