/* XPM */
static const xpm_row_t I_xpm[] = {
"15 25 2 1 ",
"  c #00B140",
". c #000000",
"   .........   ",
"   .........   ",
"   .........   ",
"      ...      ",
"      ...      ",
"      ...      ",
"      ...      ",
"      ...      ",
"      ...      ",
"      ...      ",
"      ...      ",
"      ...      ",
"      ...      ",
"      ...      ",
"      ...      ",
"      ...      ",
"      ...      ",
"      ...      ",
"      ...      ",
"      ...      ",
"      ...      ",
"      ...      ",
"   .........   ",
"   .........   ",
"   .........   "};
