/* XPM */
static const xpm_row_t J_xpm[] = {
"18 25 2 1 ",
"  c #00B140",
". c #000000",
"      .........   ",
"      .........   ",
"      .........   ",
"            ...   ",
"            ...   ",
"            ...   ",
"            ...   ",
"            ...   ",
"            ...   ",
"            ...   ",
"            ...   ",
"            ...   ",
"            ...   ",
"            ...   ",
"            ...   ",
"            ...   ",
"            ...   ",
"            ...   ",
"            ...   ",
"            ...   ",
"           ....   ",
"   ..     ....    ",
"   ...........    ",
"   ..........     ",
"   ........       "};
