/* XPM */
static const xpm_row_t L_xpm[] = {
"22 25 2 1 ",
"  c #00B140",
". c #000000",
"   ...                ",
"   ...                ",
"   ...                ",
"   ...                ",
"   ...                ",
"   ...                ",
"   ...                ",
"   ...                ",
"   ...                ",
"   ...                ",
"   ...                ",
"   ...                ",
"   ...                ",
"   ...                ",
"   ...                ",
"   ...                ",
"   ...                ",
"   ...                ",
"   ...                ",
"   ...                ",
"   ...                ",
"   ...                ",
"   ................   ",
"   ................   ",
"   ................   "};
