/* XPM */
static const xpm_row_t O_xpm[] = {
"30 26 2 1 ",
"  c #00B140",
". c #000000",
"           ........           ",
"         ............         ",
"       ................       ",
"      ......      ......      ",
"     .....          .....     ",
"     ....            ....     ",
"    ....              ....    ",
"    ...                ...    ",
"    ...                ...    ",
"   ...                  ...   ",
"   ...                  ...   ",
"   ...                  ...   ",
"   ...                  ...   ",
"   ...                  ...   ",
"   ...                  ...   ",
"   ...                  ...   ",
"   ...                  ...   ",
"    ...                ...    ",
"    ...                ...    ",
"    ....              ....    ",
"     ....            ....     ",
"     .....          .....     ",
"      ......      ......      ",
"       ................       ",
"         ............         ",
"           ........           "};
