/* XPM */
static const xpm_row_t Q_xpm[] = {
"31 33 2 1 ",
"  c #00B140",
". c #000000",
"           ........            ",
"         ............          ",
"       ................        ",
"      ......      ......       ",
"     .....          .....      ",
"     ....            ....      ",
"    ....              ....     ",
"    ...                ...     ",
"    ...                ...     ",
"   ...                  ...    ",
"   ...                  ...    ",
"   ...                  ...    ",
"   ...                  ...    ",
"   ...                  ...    ",
"   ...                  ...    ",
"   ...                  ...    ",
"   ...                  ...    ",
"    ...                ...     ",
"    ...                ...     ",
"    ....              ....     ",
"     ....            ....      ",
"     .....          .....      ",
"      ......      ......       ",
"       ................        ",
"         ............          ",
"           .........           ",
"                 ...           ",
"                 ...           ",
"                 ....          ",
"                  ....    ..   ",
"                  ..........   ",
"                   .........   ",
"                     .......   "};
