/* XPM */
static const xpm_row_t R_xpm[] = {
"27 25 2 1 ",
"  c #00B140",
". c #000000",
"   ............            ",
"   ..............          ",
"   ...............         ",
"   ...        .....        ",
"   ...          ....       ",
"   ...           ...       ",
"   ...           ...       ",
"   ...           ...       ",
"   ...           ...       ",
"   ...          ....       ",
"   ...          ...        ",
"   ...        ....         ",
"   ..............          ",
"   ............            ",
"   ............            ",
"   ...      ....           ",
"   ...       ...           ",
"   ...        ...          ",
"   ...        ....         ",
"   ...         ....        ",
"   ...          ....       ",
"   ...           ....      ",
"   ...            ....     ",
"   ...             ....    ",
"   ...              ....   "};
