/* XPM */
static const xpm_row_t S_xpm[] = {
"26 26 2 1 ",
"  c #00B140",
". c #000000",
"         .........        ",
"       ..............     ",
"     .................    ",
"    .....       ......    ",
"    ...            ...    ",
"   ...               .    ",
"   ...                    ",
"   ...                    ",
"   ...                    ",
"   ....                   ",
"    .....                 ",
"     ..........           ",
"      .............       ",
"        .............     ",
"             .........    ",
"                 .....    ",
"                   ....   ",
"                    ...   ",
"                    ...   ",
"                    ...   ",
"   .                ...   ",
"   ...             ...    ",
"   ......        .....    ",
"   ..................     ",
"    ...............       ",
"       ..........         "};
