/* XPM */
static const xpm_row_t T_xpm[] = {
"27 25 2 1 ",
"  c #00B140",
". c #000000",
"   .....................   ",
"   .....................   ",
"   .....................   ",
"            ...            ",
"            ...            ",
"            ...            ",
"            ...            ",
"            ...            ",
"            ...            ",
"            ...            ",
"            ...            ",
"            ...            ",
"            ...            ",
"            ...            ",
"            ...            ",
"            ...            ",
"            ...            ",
"            ...            ",
"            ...            ",
"            ...            ",
"            ...            ",
"            ...            ",
"            ...            ",
"            ...            ",
"            ...            "};
