/* XPM */
static const xpm_row_t W_xpm[] = {
"37 25 2 1 ",
"  c #00B140",
". c #000000",
"   ...           ...           ...   ",
"   ....         .....         ....   ",
"    ...         .....         ...    ",
"    ...         .....         ...    ",
"    ...         .. ..         ...    ",
"    ....       ... ...       ....    ",
"     ...       ... ...       ...     ",
"     ...       ... ...       ...     ",
"     ...       ..   ..       ...     ",
"      ...     ...   ...     ....     ",
"      ...     ...   ...     ...      ",
"      ...     ...   ...     ...      ",
"      ...     ..     ..     ...      ",
"       ...   ...     ...   ....      ",
"       ...   ...     ...   ...       ",
"       ...   ...     ...   ...       ",
"       ....  ..       ..   ...       ",
"        ... ...       ... ...        ",
"        ... ...       ... ...        ",
"        ... ...       ... ...        ",
"        ......         .. ...        ",
"         .....         .....         ",
"         .....         .....         ",
"         .....         .....         ",
"         ....           ....         "};
