/* XPM */
static const xpm_row_t X_xpm[] = {
"28 25 2 1 ",
"  c #00B140",
". c #000000",
"   ....              ....   ",
"    ....            ....    ",
"     ....           ...     ",
"      ...          ...      ",
"      ....        ....      ",
"       ....      ....       ",
"        ...      ...        ",
"        ....    ....        ",
"         ....  ....         ",
"          .... ...          ",
"           ......           ",
"           ......           ",
"            ....            ",
"           ......           ",
"           .......          ",
"          ...  ...          ",
"         ....  ....         ",
"        ....    ....        ",
"        ...      ...        ",
"       ....      ....       ",
"      ....        ....      ",
"      ...          ....     ",
"     ...            ...     ",
"    ....            ....    ",
"   ....              ....   "};
