/* XPM */
static const xpm_row_t cursor_xpm[] = {
"24 30 79 1 ",
"  c #000000",
". c #010101",
"X c #020202",
"o c #030303",
"O c #040404",
"+ c #050505",
"@ c #060606",
"# c #0C0C0C",
"$ c #0D0D0D",
"% c #101010",
"& c #151515",
"* c #181818",
"= c #1A1A1A",
"- c #1B1B1B",
"; c #1C1C1C",
": c #1D1D1D",
"> c #1E1E1E",
", c #1F1F1F",
"< c #202020",
"1 c #212121",
"2 c #222222",
"3 c #242424",
"4 c #282828",
"5 c #2A2A2A",
"6 c #343434",
"7 c #393939",
"8 c #3A3A3A",
"9 c #464646",
"0 c #494949",
"q c #4B4B4B",
"w c #4C4C4C",
"e c #565656",
"r c #5A5A5A",
"t c #5D5D5D",
"y c #676767",
"u c #6C6C6C",
"i c #717171",
"p c #727272",
"a c #747474",
"s c #777777",
"d c #7A7A7A",
"f c #7E7E7E",
"g c #7F7F7F",
"h c #808080",
"j c #818181",
"k c #868686",
"l c #909090",
"z c #A2A2A2",
"x c #A5A5A5",
"c c #A8A8A8",
"v c #AAAAAA",
"b c #ACACAC",
"n c #AFAFAF",
"m c #B5B5B5",
"M c #BFBFBF",
"N c #C6C6C6",
"B c #C8C8C8",
"V c #CACACA",
"C c #CECECE",
"Z c #D0D0D0",
"A c #DADADA",
"S c #DCDCDC",
"D c #DEDEDE",
"F c #E2E2E2",
"G c #E4E4E4",
"H c #E6E6E6",
"J c #E7E7E7",
"K c #E9E9E9",
"L c #EAEAEA",
"P c #ECECEC",
"I c #EEEEEE",
"U c #EFEFEF",
"Y c #F1F1F1",
"T c #F4F4F4",
"R c #F8F8F8",
"E c #FAFAFA",
"W c #FDFDFD",
"Q c #FFFFFF",
"! c #00B140",
"!!!;!!!!!!!!!!!!!!!!!!!!",
"!!!;;!!!!!!!!!!!!!!!!!!!",
"!!!;;;!!!!!!!!!!!!!!!!!!",
"!!!8Nb !!!!!!!!!!!!!!!!!",
"!!!8CFi9!!!!!!!!!!!!!!!!",
"!!!8BQFr+!!!!!!!!!!!!!!!",
"!!!8BQQTc+!!!!!!!!!!!!!!",
"!!!8BQQQAiq!!!!!!!!!!!!!",
"!!!8BQQQQGy !!!!!!!!!!!!",
"!!!8BQQQQQRv$!!!!!!!!!!!",
"!!!8BQQQQQQSiq!!!!!!!!!!",
"!!!8BQQQQQQQKi !!!!!!!!!",
"!!!8BQQQQQQQQTb&!!!!!!!!",
"!!!8NQQQQQQQQQSaw!!!!!!!",
"!!!8NQQQQQQQQQQIf !!!!!!",
"!!!8BQQQQQQQQQQYl1!!!!!!",
"!!!8BQQQQQQQQQQQQN1!!!!!",
"!!!8BQQQQQQQQQQQQImu!!!!",
"!!!8BQQQQQQQQYGGKIYk+!!!",
"!!!8BQQQQQQQKi+;---;;!!!",
"!!!8BQQQCfZQIi !!!!!!!!!",
"!!!8NQQTz-cQIj-!!!!!!!!!",
"!!!8BQFr !$rQQN1!!!!!!!!",
"!!!8CFi9!!%rQQN;!!!!!!!!",
"!!!8Nb !!!%eYQB6!!!!!!!!",
"!!!1;;!!!!!!5cQYf+!!!!!!",
"!!!!!!!!!!!!5cQIj+!!!!!!",
"!!!!!!!!!!!!5zQKa !!!!!!",
"!!!!!!!!!!!!!111!!!!!!!!",
"!!!!!!!!!!!!!!-!!!!!!!!!"
};
