/* XPM */
static const xpm_row_t select_cursor_xpm[] = {
"30 30 115 2 ",
"   c #000000",
".  c #020202",
"X  c #030303",
"o  c #040404",
"O  c #060606",
"+  c #090909",
"@  c #0B0B0B",
"#  c #0C0C0C",
"$  c #0D0D0D",
"%  c #0E0E0E",
"&  c #101010",
"*  c #111111",
"=  c #151515",
"-  c #181818",
";  c #191919",
":  c #1A1A1A",
">  c #1B1B1B",
",  c #1D1D1D",
"<  c #1F1F1F",
"1  c #202020",
"2  c #232323",
"3  c #262626",
"4  c #282828",
"5  c #2A2A2A",
"6  c #2C2C2C",
"7  c #2D2D2D",
"8  c #303030",
"9  c #323232",
"0  c #373737",
"q  c #3A3A3A",
"w  c #3E3E3E",
"e  c #414141",
"r  c #444444",
"t  c #494949",
"y  c #4B4B4B",
"u  c #4C4C4C",
"i  c #4E4E4E",
"p  c #505050",
"a  c #515151",
"s  c #525252",
"d  c #535353",
"f  c #545454",
"g  c #555555",
"h  c #565656",
"j  c #575757",
"k  c #585858",
"l  c #595959",
"z  c #5D5D5D",
"x  c #5E5E5E",
"c  c #5F5F5F",
"v  c #646464",
"b  c #666666",
"n  c #686868",
"m  c #696969",
"M  c #6A6A6A",
"N  c #6F6F6F",
"B  c #707070",
"V  c #727272",
"C  c #777777",
"Z  c #7B7B7B",
"A  c #7D7D7D",
"S  c #7E7E7E",
"D  c #808080",
"F  c #818181",
"G  c #868686",
"H  c #878787",
"J  c #888888",
"K  c #898989",
"L  c #8A8A8A",
"P  c #8B8B8B",
"I  c #8E8E8E",
"U  c #8F8F8F",
"Y  c #989898",
"T  c #9F9F9F",
"R  c #A0A0A0",
"E  c #A2A2A2",
"W  c #A4A4A4",
"Q  c #A7A7A7",
"!  c #AAAAAA",
"~  c #ABABAB",
"^  c #ACACAC",
"/  c #AEAEAE",
"(  c #B0B0B0",
")  c #B2B2B2",
"_  c #B6B6B6",
"`  c #B9B9B9",
"'  c #BCBCBC",
"]  c #C1C1C1",
"[  c #C3C3C3",
"{  c #C8C8C8",
"}  c #CCCCCC",
"|  c #D2D2D2",
" . c #D8D8D8",
".. c #DADADA",
"X. c #DBDBDB",
"o. c #DDDDDD",
"O. c #DEDEDE",
"+. c #DFDFDF",
"@. c #E4E4E4",
"#. c #E5E5E5",
"$. c #E6E6E6",
"%. c #E9E9E9",
"&. c #ECECEC",
"*. c #EDEDED",
"=. c #EEEEEE",
"-. c #F3F3F3",
";. c #F6F6F6",
":. c #F7F7F7",
">. c #F8F8F8",
",. c #FAFAFA",
"<. c #FBFBFB",
"1. c #FCFCFC",
"2. c #FEFEFE",
"3. c #FFFFFF",
"4. c #00B140",
"4.4.4.4.4.4.4.4.4.4.& & 4.4.4.4.4.4.4.4.4.4.4.4.4.4.4.4.4.4.",
"4.4.4.4.4.4.4.4.4.b ! ! j 4.4.4.4.4.4.4.4.4.4.4.4.4.4.4.4.4.",
"4.4.4.4.4.4.4.4.. S 3.;.n o 4.4.4.4.4.4.4.4.4.4.4.4.4.4.4.4.",
"4.4.4.4.4.4.4.4.. S ,.;.n o 4.4.4.4.4.4.4.4.4.4.4.4.4.4.4.4.",
"4.4.4.4.4.4.4.4.. S ,.;.n o 4.4.4.4.4.4.4.4.4.4.4.4.4.4.4.4.",
"4.4.4.4.4.4.4.4.. S ,.;.n o 4.4.4.4.4.4.4.4.4.4.4.4.4.4.4.4.",
"4.4.4.4.4.4.4.4.. S ,.;.n o 4.4.4.4.4.4.4.4.4.4.4.4.4.4.4.4.",
"4.4.4.4.4.4.4.4.. S ,.;.n + & % 4.4.4.4.4.4.4.4.4.4.4.4.4.4.",
"4.4.4.4.4.4.4.4.. S ,.;.x u Q R d o + % 4.4.4.4.4.4.4.4.4.4.",
"4.4.4.4.4.4.4.4.. S ,.;.j C 3.*.x 8 b x 4.4.4.4.4.4.4.4.4.4.",
"4.4.4.4.4.4.4.4.. S ,.;.j C 3.*.d F 3.#.k : 7 4.4.4.4.4.4.4.",
"4.4.4.4.4.4.4.4.. S ,.;.j C 3.*.d F 3.#.u Y _ 3 4.4.4.4.4.4.",
"4.4.4., = + % 4.. S ,.;.u V 3.*.t C 3.+.u I 3.' t 4.4.4.4.4.",
"4.4.4., x U S q . S ,.3.Q _ 3.;.R ' 3.+.t J 3.X.d 4.4.4.4.4.",
"4.4.4.: Q 3.X.n & C ;.3.3.3.3.3.3.3.3.%.N R 3.X.d 4.4.4.4.4.",
"4.4.4.: Q 3.3.,.x V ;.3.3.3.3.3.3.3.3.3.3.3.3.X.d 4.4.4.4.4.",
"4.4.4.4.1 J -.3.*.*.3.3.3.3.3.3.3.3.3.3.3.3.3.X.d 4.4.4.4.4.",
"4.4.4.4.4.w J #.3.3.3.3.3.3.3.3.3.3.3.3.3.3.3.X.u 4.4.4.4.4.",
"4.4.4.4.4.4.e { 3.3.3.3.3.3.3.3.3.3.3.3.3.3.3.X.d 4.4.4.4.4.",
"4.4.4.4.4.4.r ] 3.3.3.3.3.3.3.3.3.3.3.3.3.3.3...d 4.4.4.4.4.",
"4.4.4.4.4.4.4.3 / 3.3.3.3.3.3.3.3.3.3.3.3.3.3.X.d 4.4.4.4.4.",
"4.4.4.4.4.4.4., / 3.3.3.3.3.3.3.3.3.3.3.3.3.] j 3 4.4.4.4.4.",
"4.4.4.4.4.4.4.1 J %.3.3.3.3.3.3.3.3.3.3.3.3./ 7 4.4.4.4.4.4.",
"4.4.4.4.4.4.4.4.% G ;.3.3.3.3.3.3.3.3.3.3.3.( 8 4.4.4.4.4.4.",
"4.4.4.4.4.4.4.4.. S ;.3.3.3.3.3.3.3.3.3.3.3.( 8 4.4.4.4.4.4.",
"4.4.4.4.4.4.4.4.4.b { ;.3.3.3.3.3.3.3.3.3.#.J 7 4.4.4.4.4.4.",
"4.4.4.4.4.4.4.4.4.4.t | 3.3.3.3.3.3.3.3.3.F + 4.4.4.4.4.4.4.",
"4.4.4.4.4.4.4.4.4.4.d  .3.3.3.3.3.3.3.3.3.G & 4.4.4.4.4.4.4.",
"4.4.4.4.4.4.4.4.4.4.6 u j j d d d d d d j q : 4.4.4.4.4.4.4.",
"4.4.4.4.4.4.4.4.4.4.: & % % % + % % % % + = 4.4.4.4.4.4.4.4."
};
