/* XPM */
static const xpm_row_t number1_xpm[] = {
"28 45 2 1",
"  c #00B140",
". c #5CBE5C",
"            .....           ",
"            .....           ",
"            .....           ",
"           ......           ",
"          .......           ",
"       ..........           ",
"  ...............           ",
"  ...............           ",
"  ...............           ",
"  ...............           ",
"           ......           ",
"           ......           ",
"           ......           ",
"           ......           ",
"           ......           ",
"           ......           ",
"           ......           ",
"           ......           ",
"           ......           ",
"           ......           ",
"           ......           ",
"           ......           ",
"           ......           ",
"           ......           ",
"           ......           ",
"           ......           ",
"           ......           ",
"           ......           ",
"           ......           ",
"           ......           ",
"           ......           ",
"           ......           ",
"           ......           ",
"           ......           ",
"           ......           ",
"           ......           ",
"           ......           ",
"           ......           ",
"           ......           ",
"           ......           ",
"  ........................  ",
"  ........................  ",
"  ........................  ",
"  ........................  ",
"  ........................  "};
