/* XPM */
static const xpm_row_t number7_xpm[] = {
"35 45 2 1",
"  c #00B140",
". c #5CBE5C",
"  ...............................  ",
"  ...............................  ",
"  ...............................  ",
"  ...............................  ",
"  ...............................  ",
"                           ......  ",
"                          .......  ",
"                          ......   ",
"                         .......   ",
"                         ......    ",
"                        .......    ",
"                        ......     ",
"                       .......     ",
"                       ......      ",
"                      .......      ",
"                      ......       ",
"                     .......       ",
"                     ......        ",
"                    .......        ",
"                   .......         ",
"                   .......         ",
"                  .......          ",
"                  ......           ",
"                 .......           ",
"                 ......            ",
"                .......            ",
"                ......             ",
"               .......             ",
"               ......              ",
"              .......              ",
"              ......               ",
"             .......               ",
"             ......                ",
"            .......                ",
"            ......                 ",
"           .......                 ",
"          .......                  ",
"          .......                  ",
"         .......                   ",
"         .......                   ",
"        .......                    ",
"        .......                    ",
"       .......                     ",
"       .......                     ",
"      .......                      "};
