/* XPM */
static const xpm_row_t number4_xpm[] = {
"38 45 2 1",
"  c #00B140",
". c #5CBE5C",
"                       ......         ",
"                      .......         ",
"                     ........         ",
"                    .........         ",
"                   ..........         ",
"                   ..........         ",
"                  ...........         ",
"                 ............         ",
"                .............         ",
"               ....... ......         ",
"              .......  ......         ",
"              ......   ......         ",
"             ......    ......         ",
"            ......     ......         ",
"           .......     ......         ",
"          .......      ......         ",
"         .......       ......         ",
"        .......        ......         ",
"        ......         ......         ",
"       ......          ......         ",
"      ......           ......         ",
"     .......           ......         ",
"    .......            ......         ",
"   .......             ......         ",
"   ......              ......         ",
"  ......               ......         ",
"  .....                ......         ",
"  ..................................  ",
"  ..................................  ",
"  ..................................  ",
"  ..................................  ",
"  ..................................  ",
"                       ......         ",
"                       ......         ",
"                       ......         ",
"                       ......         ",
"                       ......         ",
"                       ......         ",
"                       ......         ",
"                       ......         ",
"                       ......         ",
"                       ......         ",
"                       ......         ",
"                       ......         ",
"                       ......         "};
