/* XPM */
static const xpm_row_t number6_xpm[] = {
"36 47 2 1",
"  c #00B140",
". c #5CBE5C",
"                   ..........       ",
"               ...............      ",
"             .................      ",
"            ..................      ",
"          ....................      ",
"         ..........         ..      ",
"        ........                    ",
"       ........                     ",
"       ......                       ",
"      ......                        ",
"     .......                        ",
"     ......                         ",
"    ......                          ",
"    ......                          ",
"    .....                           ",
"   ......                           ",
"   ......                           ",
"   ......     ..........            ",
"   .....   ................         ",
"  ...... ...................        ",
"  ............................      ",
"  .............................     ",
"  ...........         .........     ",
"  ........              ........    ",
"  ......                 ........   ",
"  ......                  .......   ",
"  ......                   ......   ",
"  ......                   .......  ",
"  ......                    ......  ",
"  ......                    ......  ",
"  ......                    ......  ",
"  ......                    ......  ",
"  ......                    ......  ",
"   ......                   ......  ",
"   ......                   ......  ",
"   ......                  .......  ",
"   .......                 ......   ",
"    ......                 ......   ",
"    .......               ......    ",
"     .......             .......    ",
"     ........           .......     ",
"      .........       ........      ",
"       .......................      ",
"        ....................        ",
"         ..................         ",
"           ..............           ",
"              ........              "};
