/* XPM */
static const xpm_row_t number8_xpm[] = {
"35 47 2 1",
"  c #00B140",
". c #5CBE5C",
"             .........             ",
"          ...............          ",
"        ...................        ",
"       .....................       ",
"      ........       ........      ",
"     .......           .......     ",
"    .......             .......    ",
"    ......               ......    ",
"   ......                .......   ",
"   ......                 ......   ",
"   ......                 ......   ",
"   ......                 ......   ",
"   ......                 ......   ",
"   .......                ......   ",
"   .......                ......   ",
"    .......              ......    ",
"    ........             ......    ",
"     .........          ......     ",
"     ...........       ......      ",
"       ...........    ......       ",
"        ...................        ",
"         .................         ",
"         ................          ",
"       ...... .............        ",
"      ......     ............      ",
"     ......         ..........     ",
"    ......            .........    ",
"    .....               .......    ",
"   ......                .......   ",
"   .....                  ......   ",
"  ......                  .......  ",
"  ......                   ......  ",
"  ......                   ......  ",
"  ......                   ......  ",
"  ......                   ......  ",
"  ......                   ......  ",
"  .......                  ......  ",
"   ......                 ......   ",
"   .......                ......   ",
"   ........              .......   ",
"    ........           ........    ",
"     .........       .........     ",
"     ........................      ",
"      ......................       ",
"        ...................        ",
"          ...............          ",
"             .........             "};
