/* XPM */
static const xpm_row_t number2_xpm[] = {
"34 46 2 1",
"  c #00B140",
". c #5CBE5C",
"          ..........              ",
"      .................           ",
"    .....................         ",
"   .......................        ",
"   ........................       ",
"   ........        .........      ",
"   .....             ........     ",
"   ...                .......     ",
"   .                   ......     ",
"                       .......    ",
"                        ......    ",
"                        ......    ",
"                        ......    ",
"                        ......    ",
"                        ......    ",
"                        ......    ",
"                       .......    ",
"                       ......     ",
"                       ......     ",
"                      .......     ",
"                     .......      ",
"                     .......      ",
"                    .......       ",
"                   .......        ",
"                  .......         ",
"                 ........         ",
"                ........          ",
"               ........           ",
"              ........            ",
"             ........             ",
"            ........              ",
"           ........               ",
"          ........                ",
"         ........                 ",
"        ........                  ",
"       .......                    ",
"      .......                     ",
"     .......                      ",
"    .......                       ",
"  ........                        ",
"  .......                         ",
"  ..............................  ",
"  ..............................  ",
"  ..............................  ",
"  ..............................  ",
"  ..............................  "};
