/* XPM */
static const xpm_row_t separator_xpm[] = {
"25 25 2 1",
"  c #00B140",
". c #000000",
"                         ",
"                         ",
"          ....           ",
"          ....           ",
"          ....           ",
"          ....           ",
"          ....           ",
"                         ",
"                         ",
"                         ",
"                         ",
"                         ",
"                         ",
"                         ",
"                         ",
"                         ",
"                         ",
"                         ",
"          ....           ",
"          ....           ",
"          ....           ",
"          ....           ",
"          ....           ",
"                         ",
"                         "};
