/* XPM */
static const xpm_row_t cross_xpm[] = {
"20 20 2 1",
"  c #00B140",
". c #000000",
".....          .....",
" .....        ..... ",
"  .....      .....  ",
"   ....      ....   ",
"    ....    ....    ",
"    .....  .....    ",
"     ....  ....     ",
"      ........      ",
"       ......       ",
"        ....        ",
"        ....        ",
"       ......       ",
"      ........      ",
"     ....  ....     ",
"    .....  .....    ",
"    ....    ....    ",
"   ....      ....   ",
"  .....      .....  ",
" .....        ..... ",
".....          ....."};
