/* XPM */
static const xpm_row_t eraser_xpm[] = {
"100 100 45 1 ",
"  c #00B140",
". c #42C3E2",
"+ c #42C2E2",
"@ c #41C3E1",
"# c #3CC0DF",
"$ c #00A5C7",
"% c #28B4D4",
"& c #37BBDB",
"* c #3BBFDF",
"= c #3DC0E0",
"- c #3BBEDE",
"; c #32B9D9",
"> c #41C3E2",
", c #1CADCE",
"' c #D75861",
") c #8AA5BE",
"! c #33BADA",
"~ c #83A8C2",
"{ c #38BDDC",
"] c #84A7C1",
"^ c #82A8C2",
"/ c #82A9C3",
"( c #81A9C3",
"_ c #82A9C2",
": c #39BDDC",
"< c #D65962",
"[ c #CA6E7D",
"} c #7CA3BD",
"| c #BD535E",
"1 c #668CA8",
"2 c #C24F58",
"3 c #BF4E57",
"4 c #B9525C",
"5 c #678CA7",
"6 c #BA525D",
"7 c #BA525C",
"8 c #648DA9",
"9 c #658CA8",
"0 c #B9525D",
"a c #C04E58",
"b c #C35059",
"c c #D45760",
"d c #C45059",
"e c #BE4E57",
"f c #BF4D57",
"                                                                .....                               ",
"                                                              +........                             ",
"                                                             ...........                            ",
"                                                            .............                           ",
"                                                           ...............                          ",
"                                                          .................                         ",
"                                                         ...................                        ",
"                                                        .....................                       ",
"                                                       .......................                      ",
"                                                      .........................                     ",
"                                                     ...........................                    ",
"                                                    .............................                   ",
"                                                   ...............................                  ",
"                                                  .................................                 ",
"                                                 ...................................                ",
"                                                .....................................               ",
"                                               .......................................              ",
"                                              .........................................             ",
"                                             ...........................................            ",
"                                            .............................................           ",
"                                           ...............................................          ",
"                                          .................................................         ",
"                                         ..................................................@        ",
"                                        ....................................................#$$     ",
"                                       ......................................................%$     ",
"                                      .......................................................&$$    ",
"                                     ........................................................*$$$   ",
"                                    .........................................................=$$$$  ",
"                                   ..........................................................-$$$$$ ",
"                                  ...........................................................;$$$$$$",
"                                 ...........................................................>,$$$$$$",
"                               ')...........................................................!$$$$$$$",
"                              '''~.........................................................{$$$$$$$$",
"                             '''''].......................................................{$$$$$$$$$",
"                            '''''''^.....................................................{$$$$$$$$$$",
"                           '''''''''^...................................................{$$$$$$$$$$$",
"                          '''''''''''/>................................................{$$$$$$$$$$$$",
"                         '''''''''''''/...............................................{$$$$$$$$$$$$$",
"                        '''''''''''''''^.............................................{$$$$$$$$$$$$$$",
"                       '''''''''''''''''(...........................................{$$$$$$$$$$$$$$ ",
"                      '''''''''''''''''''~.........................................{$$$$$$$$$$$$$$  ",
"                     '''''''''''''''''''''(.......................................{$$$$$$$$$$$$$$   ",
"                    '''''''''''''''''''''''^.....................................{$$$$$$$$$$$$$$$   ",
"                   '''''''''''''''''''''''''(>..................................{$$$$$$$$$$$$$$     ",
"                  '''''''''''''''''''''''''''_.................................{$$$$$$$$$$$$$$$     ",
"                 '''''''''''''''''''''''''''''_>..............................:$$$$$$$$$$$$$$       ",
"                '''''''''''''''''''''''''''''''(.............................:$$$$$$$$$$$$$$$       ",
"               '''''''''''''''''''''''''''''''''^...........................:$$$$$$$$$$$$$$         ",
"              '''''''''''''''''''''''''''''''''''(.........................:$$$$$$$$$$$$$$          ",
"             '''''''''''''''''''''''''''''''''''''~.......................{$$$$$$$$$$$$$$$          ",
"            '''''''''''''''''''''''''''''''''''''''(.....................:$$$$$$$$$$$$$$            ",
"           '''''''''''''''''''''''''''''''''''''''''^...................:$$$$$$$$$$$$$$$            ",
"          '''''''''''''''''''''''''''''''''''''''''''(>................:$$$$$$$$$$$$$$              ",
"         '''''''''''''''''''''''''''''''''''''''''''''_...............:$$$$$$$$$$$$$$$              ",
"        '''''''''''''''''''''''''''''''''''''''''''''''_>............:$$$$$$$$$$$$$$                ",
"       '''''''''''''''''''''''''''''''''''''''''''''''''(...........:$$$$$$$$$$$$$$$                ",
"      '''''''''''''''''''''''''''''''''''''''''''''''''''^.........:$$$$$$$$$$$$$$                  ",
"     '''''''''''''''''''''''''''''''''''''''''''''''''''''(.......:$$$$$$$$$$$$$$                   ",
"    '''''''''''''''''''''''''''''''''''''''''''''''''''''''<.....{$$$$$$$$$$$$$$$                   ",
"   '''''''''''''''''''''''''''''''''''''''''''''''''''''''''[...:$$$$$$$$$$$$$$                     ",
"  '''''''''''''''''''''''''''''''''''''''''''''''''''''''''''^.:$$$$$$$$$$$$$$$                     ",
" '''''''''''''''''''''''''''''''''''''''''''''''''''''''''''''}$$$$$$$$$$$$$$                       ",
" '''''''''''''''''''''''''''''''''''''''''''''''''''''''''''''|1$$$$$$$$$$$$$                       ",
" ''''''''''''''''''''''''''''''''''''''''''''''''''''''''''''2345$$$$$$$$$$                         ",
"''''''''''''''''''''''''''''''''''''''''''''''''''''''''''''233361$$$$$$$$$                         ",
"'''''''''''''''''''''''''''''''''''''''''''''''''''''''''''23333371$$$$$$                           ",
"''''''''''''''''''''''''''''''''''''''''''''''''''''''''''2333333368$$$$                            ",
"'''''''''''''''''''''''''''''''''''''''''''''''''''''''''233333333369$$$                            ",
" '''''''''''''''''''''''''''''''''''''''''''''''''''''''2333333333330                               ",
" ''''''''''''''''''''''''''''''''''''''''''''''''''''''2333333333333                                ",
" '''''''''''''''''''''''''''''''''''''''''''''''''''''2333333333333                                 ",
"  '''''''''''''''''''''''''''''''''''''''''''''''''''2333333333333                                  ",
"   '''''''''''''''''''''''''''''''''''''''''''''''''2333333333333                                   ",
"    '''''''''''''''''''''''''''''''''''''''''''''''2333333333333                                    ",
"     '''''''''''''''''''''''''''''''''''''''''''''2333333333333                                     ",
"      '''''''''''''''''''''''''''''''''''''''''''2333333333333                                      ",
"       '''''''''''''''''''''''''''''''''''''''''2333333333333                                       ",
"        '''''''''''''''''''''''''''''''''''''''2333333333333                                        ",
"         '''''''''''''''''''''''''''''''''''''2333333333333                                         ",
"          '''''''''''''''''''''''''''''''''''2333333333333                                          ",
"           '''''''''''''''''''''''''''''''''2333333333333                                           ",
"            '''''''''''''''''''''''''''''''2333333333333                                            ",
"             '''''''''''''''''''''''''''''2333333333333                                             ",
"              '''''''''''''''''''''''''''2333333333333                                              ",
"               '''''''''''''''''''''''''2333333333333                                               ",
"                '''''''''''''''''''''''2333333333333                                                ",
"                 '''''''''''''''''''''2333333333333                                                 ",
"                  '''''''''''''''''''2333333333333                                                  ",
"                   '''''''''''''''''2333333333333                                                   ",
"                    '''''''''''''''2333333333333                                                    ",
"                     '''''''''''''2333333333333                                                     ",
"                      '''''''''''2333333333333                                                      ",
"                       '''''''''a333333333333                                                       ",
"                         3bccd33333333333333                                                        ",
"                          33333333333333333                                                         ",
"                           333333333333333                                                          ",
"                            3333333333333                                                           ",
"                             e3333333333                                                            ",
"                              333333333                                                             ",
"                                33333f                                                              "};
